<svg width="1440" height="35" viewBox="0 0 1440 35" fill="none" xmlns="http://www.w3.org/2000/svg">
<path d="M16 23.2978V10.7609H24.1639V12.5278H17.9863V16.2973H23.4906V18.0643H17.9863V23.2978H16Z" fill="#373735"/>
<path d="M29.2868 23.4998C28.4115 23.4998 27.6091 23.2922 26.8797 22.8771C26.1615 22.462 25.5892 21.8955 25.1627 21.1775C24.7363 20.4595 24.5231 19.6461 24.5231 18.7374C24.5231 17.8175 24.7363 17.0041 25.1627 16.2973C25.5892 15.5793 26.1615 15.0184 26.8797 14.6145C27.5979 14.1994 28.4003 13.9919 29.2868 13.9919C30.1845 13.9919 30.9869 14.1994 31.6939 14.6145C32.4121 15.0184 32.9788 15.5793 33.394 16.2973C33.8204 17.0041 34.0337 17.8175 34.0337 18.7374C34.0337 19.6573 33.8204 20.4763 33.394 21.1943C32.9676 21.9123 32.3953 22.4788 31.6771 22.8939C30.9589 23.2978 30.1621 23.4998 29.2868 23.4998ZM29.2868 21.7328C29.8254 21.7328 30.3024 21.6038 30.7176 21.3458C31.1328 21.0877 31.4582 20.7343 31.6939 20.2856C31.9408 19.8256 32.0642 19.3095 32.0642 18.7374C32.0642 18.1652 31.9408 17.6548 31.6939 17.206C31.4582 16.7573 31.1328 16.4039 30.7176 16.1459C30.3024 15.8878 29.8254 15.7588 29.2868 15.7588C28.7594 15.7588 28.2824 15.8878 27.856 16.1459C27.4408 16.4039 27.1097 16.7573 26.8629 17.206C26.6272 17.6548 26.5094 18.1652 26.5094 18.7374C26.5094 19.3095 26.6272 19.8256 26.8629 20.2856C27.1097 20.7343 27.4408 21.0877 27.856 21.3458C28.2824 21.6038 28.7594 21.7328 29.2868 21.7328Z" fill="#373735"/>
<path d="M35.3857 23.2978V14.1938H37.2036V16.0281L37.0353 15.7588C37.2373 15.1642 37.5627 14.7379 38.0116 14.4799C38.4605 14.2106 38.9991 14.076 39.6276 14.076H40.1831V15.8093H39.3919C38.7635 15.8093 38.2529 16.0056 37.8601 16.3983C37.4786 16.7797 37.2878 17.3294 37.2878 18.0474V23.2978H35.3857Z" fill="#373735"/>
<path d="M45.3727 27C44.7106 27 44.099 26.8934 43.5379 26.6803C42.9768 26.4671 42.4943 26.1698 42.0903 25.7884C41.6863 25.4182 41.3833 24.9806 41.1813 24.4758L42.9319 23.7522C43.0891 24.1785 43.3752 24.5319 43.7904 24.8123C44.2169 25.0928 44.7387 25.233 45.3559 25.233C45.8384 25.233 46.2705 25.1377 46.652 24.947C47.0336 24.7675 47.3365 24.4982 47.561 24.1392C47.7854 23.7914 47.8976 23.3707 47.8976 22.8771V20.8241L48.2343 21.2111C47.9201 21.7945 47.4824 22.2376 46.9213 22.5405C46.3715 22.8435 45.7486 22.9949 45.0529 22.9949C44.2112 22.9949 43.4538 22.7986 42.7804 22.4059C42.1071 22.0133 41.5741 21.4748 41.1813 20.7904C40.7998 20.1061 40.609 19.3376 40.609 18.485C40.609 17.6211 40.7998 16.8526 41.1813 16.1795C41.5741 15.5064 42.1015 14.9735 42.7636 14.5808C43.4257 14.1882 44.1832 13.9919 45.0361 13.9919C45.7318 13.9919 46.349 14.1433 46.8877 14.4462C47.4375 14.7379 47.8864 15.1642 48.2343 15.7252L47.9818 16.1963V14.1938H49.7829V22.8771C49.7829 23.6624 49.5922 24.3636 49.2106 24.9806C48.8403 25.6089 48.3241 26.1025 47.662 26.4615C46.9999 26.8205 46.2368 27 45.3727 27ZM45.2717 21.228C45.7767 21.228 46.2256 21.1102 46.6183 20.8746C47.0111 20.6278 47.3197 20.3024 47.5442 19.8985C47.7798 19.4834 47.8976 19.0179 47.8976 18.5018C47.8976 17.9857 47.7798 17.5202 47.5442 17.1051C47.3085 16.69 46.9943 16.3646 46.6015 16.129C46.2087 15.8822 45.7655 15.7588 45.2717 15.7588C44.7555 15.7588 44.2954 15.8822 43.8914 16.129C43.4874 16.3646 43.1676 16.69 42.9319 17.1051C42.7075 17.5089 42.5953 17.9745 42.5953 18.5018C42.5953 19.0066 42.7075 19.4666 42.9319 19.8817C43.1676 20.2968 43.4874 20.6278 43.8914 20.8746C44.2954 21.1102 44.7555 21.228 45.2717 21.228Z" fill="#373735"/>
<path d="M55.78 23.4998C54.8711 23.4998 54.0631 23.2922 53.3561 22.8771C52.6603 22.4508 52.1161 21.8786 51.7233 21.1606C51.3305 20.4314 51.1342 19.6181 51.1342 18.7206C51.1342 17.8006 51.3305 16.9873 51.7233 16.2805C52.1273 15.5737 52.666 15.0184 53.3393 14.6145C54.0126 14.1994 54.7757 13.9919 55.6285 13.9919C56.3131 13.9919 56.9247 14.1097 57.4633 14.3453C58.002 14.5808 58.4565 14.9062 58.8268 15.3213C59.1971 15.7252 59.4777 16.1907 59.6684 16.718C59.8704 17.2453 59.9714 17.8062 59.9714 18.4008C59.9714 18.5467 59.9658 18.6981 59.9546 18.8552C59.9434 19.0123 59.9209 19.1581 59.8873 19.2927H52.6323V17.7782H58.81L57.901 18.4681C58.0132 17.9184 57.9739 17.4304 57.7831 17.0041C57.6036 16.5666 57.323 16.2244 56.9415 15.9776C56.5712 15.7195 56.1335 15.5905 55.6285 15.5905C55.1236 15.5905 54.6747 15.7195 54.2819 15.9776C53.8891 16.2244 53.5861 16.5834 53.3729 17.0546C53.1597 17.5146 53.0756 18.0755 53.1204 18.7374C53.0643 19.3544 53.1485 19.8929 53.3729 20.3529C53.6086 20.8129 53.934 21.1719 54.3492 21.4299C54.7757 21.6879 55.2582 21.8169 55.7969 21.8169C56.3467 21.8169 56.8124 21.6935 57.194 21.4467C57.5868 21.1999 57.8954 20.8802 58.1198 20.4875L59.6684 21.2448C59.4889 21.6711 59.2083 22.0581 58.8268 22.4059C58.4565 22.7425 58.0076 23.0117 57.4802 23.2137C56.9639 23.4044 56.3972 23.4998 55.78 23.4998Z" fill="#373735"/>
<path d="M60.7757 13.3903V11.2234H58.6082V10.1453H60.7757V8H61.8541V10.1453H64V11.2234H61.8541V13.3903H60.7757Z" fill="#FF5F45"/>
</svg>
