<svg width="16" height="16" viewBox="0 0 16 16" fill="none" xmlns="http://www.w3.org/2000/svg">
<path d="M8.00001 1.3335H5.66668C5.04784 1.3335 4.45435 1.57933 4.01676 2.01691C3.57918 2.4545 3.33334 3.04799 3.33334 3.66683C3.33334 4.28567 3.57918 4.87916 4.01676 5.31675C4.45435 5.75433 5.04784 6.00016 5.66668 6.00016M8.00001 1.3335V6.00016M8.00001 1.3335H10.3333C10.6398 1.3335 10.9432 1.39385 11.2263 1.51111C11.5094 1.62837 11.7666 1.80024 11.9833 2.01691C12.1999 2.23358 12.3718 2.49081 12.4891 2.7739C12.6063 3.05699 12.6667 3.36041 12.6667 3.66683C12.6667 3.97325 12.6063 4.27666 12.4891 4.55976C12.3718 4.84285 12.1999 5.10008 11.9833 5.31675C11.7666 5.53342 11.5094 5.70529 11.2263 5.82255C10.9432 5.93981 10.6398 6.00016 10.3333 6.00016M8.00001 6.00016H5.66668M8.00001 6.00016H10.3333M8.00001 6.00016V10.6668M5.66668 6.00016C5.04784 6.00016 4.45435 6.246 4.01676 6.68358C3.57918 7.12117 3.33334 7.71466 3.33334 8.3335C3.33334 8.95233 3.57918 9.54583 4.01676 9.98341C4.45435 10.421 5.04784 10.6668 5.66668 10.6668M10.3333 6.00016C10.0269 6.00016 9.72351 6.06052 9.44042 6.17778C9.15732 6.29504 8.9001 6.46691 8.68343 6.68358C8.46676 6.90025 8.29489 7.15748 8.17762 7.44057C8.06036 7.72366 8.00001 8.02708 8.00001 8.3335C8.00001 8.63991 8.06036 8.94333 8.17762 9.22642C8.29489 9.50952 8.46676 9.76674 8.68343 9.98341C8.9001 10.2001 9.15732 10.372 9.44042 10.4892C9.72351 10.6065 10.0269 10.6668 10.3333 10.6668C10.6398 10.6668 10.9432 10.6065 11.2263 10.4892C11.5094 10.372 11.7666 10.2001 11.9833 9.98341C12.1999 9.76674 12.3718 9.50952 12.4891 9.22642C12.6063 8.94333 12.6667 8.63991 12.6667 8.3335C12.6667 8.02708 12.6063 7.72366 12.4891 7.44057C12.3718 7.15748 12.1999 6.90025 11.9833 6.68358C11.7666 6.46691 11.5094 6.29504 11.2263 6.17778C10.9432 6.06052 10.6398 6.00016 10.3333 6.00016ZM5.66668 10.6668C5.04784 10.6668 4.45435 10.9127 4.01676 11.3502C3.57918 11.7878 3.33334 12.3813 3.33334 13.0002C3.33334 13.619 3.57918 14.2125 4.01676 14.6501C4.45435 15.0877 5.04784 15.3335 5.66668 15.3335C6.28552 15.3335 6.87901 15.0877 7.31659 14.6501C7.75418 14.2125 8.00001 13.619 8.00001 13.0002V10.6668M5.66668 10.6668H8.00001" stroke="#0F172A" stroke-linecap="round" stroke-linejoin="round"/>
</svg>
